# This file uses centimeters as units for non-parametric coordinates.

mtllib Cone.mtl
g default
v 1.235268 0.244047 -0.478545
v 0.978983 0.244047 -0.892461
v 0.590480 0.244047 -1.185844
v 0.122230 0.244047 -1.319073
v -0.362528 0.244047 -1.274154
v -0.798325 0.244047 -1.057153
v -1.126303 0.244047 -0.697377
v -1.302168 0.244047 -0.243417
v -1.302168 0.244047 0.243417
v -1.126303 0.244047 0.697377
v -0.798325 0.244047 1.057153
v -0.362528 0.244047 1.274154
v 0.122230 0.244047 1.319073
v 0.590480 0.244047 1.185844
v 0.978983 0.244047 0.892461
v 1.235268 0.244047 0.478546
v 1.324724 0.244047 0.000000
v 0.186902 4.388964 -0.068664
v 0.150129 4.388964 -0.128055
v 0.094385 4.388964 -0.170151
v 0.027198 4.388964 -0.189267
v -0.042358 4.388964 -0.182823
v -0.104888 4.388964 -0.151686
v -0.151948 4.388964 -0.100063
v -0.177181 4.388964 -0.034927
v -0.177181 4.388964 0.034927
v -0.151948 4.388964 0.100063
v -0.104888 4.388964 0.151686
v -0.042358 4.388964 0.182823
v 0.027198 4.388964 0.189267
v 0.094385 4.388964 0.170151
v 0.150129 4.388964 0.128055
v 0.186902 4.388964 0.068664
v 0.199737 4.388964 0.000000
v 0.133099 4.388964 -0.047629
v 0.107592 4.388964 -0.088825
v 0.068925 4.388964 -0.118025
v 0.022321 4.388964 -0.131284
v -0.025926 4.388964 -0.126814
v -0.069300 4.388964 -0.105216
v -0.101943 4.388964 -0.069409
v -0.119446 4.388964 -0.024227
v -0.119446 4.388964 0.024227
v -0.101943 4.388964 0.069409
v -0.069300 4.388964 0.105216
v -0.025926 4.388964 0.126814
v 0.022321 4.388964 0.131285
v 0.068925 4.388964 0.118025
v 0.107592 4.388964 0.088825
v 0.133099 4.388964 0.047629
v 0.142002 4.388964 0.000000
v 0.133099 4.242430 -0.047629
v 0.107592 4.242430 -0.088825
v 0.068925 4.242430 -0.118025
v 0.022321 4.242430 -0.131284
v -0.025926 4.242430 -0.126814
v -0.069300 4.242430 -0.105216
v -0.101943 4.242430 -0.069409
v -0.119446 4.242430 -0.024227
v -0.119446 4.242430 0.024227
v -0.101943 4.242430 0.069409
v -0.069300 4.242430 0.105216
v -0.025926 4.242430 0.126814
v 0.022321 4.242430 0.131285
v 0.068925 4.242430 0.118025
v 0.107592 4.242430 0.088825
v 0.133099 4.242430 0.047629
v 0.142002 4.242430 0.000000
v -1.851369 0.051978 0.925777
v -0.925777 0.051978 1.851369
v -1.851369 0.277341 0.925777
v -0.925777 0.277341 1.851369
v 1.851369 0.051978 0.925777
v 0.925777 0.051978 1.851369
v 1.851369 0.277341 0.925777
v 0.925777 0.277341 1.851369
v -1.851369 0.277341 -0.925777
v -0.925777 0.277341 -1.851369
v -1.851369 0.051978 -0.925777
v -0.925777 0.051978 -1.851369
v 0.925777 0.277341 -1.851369
v 1.851369 0.277341 -0.925777
v 1.851369 0.051978 -0.925777
v 0.925777 0.051978 -1.851369
vt 0.402710 0.001992
vt 0.445505 0.001992
vt 0.465160 0.392737
vt 0.459019 0.392737
vt 0.491400 0.001992
vt 0.471745 0.392737
vt 0.368794 0.001992
vt 0.454153 0.392737
vt 0.534195 0.001992
vt 0.477885 0.392737
vt 0.568111 0.001992
vt 0.482752 0.392737
vt 0.068552 0.001992
vt 0.113665 0.001992
vt 0.113665 0.392737
vt 0.107192 0.392737
vt 0.158778 0.001992
vt 0.120138 0.392737
vt 0.029532 0.001992
vt 0.101593 0.392737
vt 0.197798 0.001992
vt 0.125737 0.392737
vt 0.001874 0.001992
vt 0.097624 0.392737
vt 0.225455 0.001992
vt 0.129705 0.392737
vt 0.441285 0.752683
vt 0.441285 0.756943
vt 0.427471 0.756943
vt 0.427471 0.752683
vt 0.441285 0.761511
vt 0.427471 0.761511
vt 0.441285 0.749308
vt 0.427471 0.749308
vt 0.441285 0.765770
vt 0.427471 0.765770
vt 0.441285 0.769145
vt 0.427471 0.769145
vt 0.421115 0.755944
vt 0.421115 0.760434
vt 0.407301 0.760434
vt 0.407301 0.755944
vt 0.421115 0.764924
vt 0.407301 0.764924
vt 0.421115 0.752061
vt 0.407301 0.752061
vt 0.421115 0.768808
vt 0.407301 0.768808
vt 0.421115 0.749308
vt 0.407301 0.749308
vt 0.421115 0.771560
vt 0.407301 0.771560
vt 0.742952 0.263796
vt 0.711692 0.263796
vt 0.711692 0.089248
vt 0.742952 0.089248
vt 0.711692 0.351052
vt 0.742952 0.351052
vt 0.742952 0.001992
vt 0.711692 0.001992
vt 0.781459 0.263796
vt 0.750199 0.263796
vt 0.750199 0.089248
vt 0.781459 0.089248
vt 0.781459 0.351052
vt 0.750199 0.351052
vt 0.750199 0.001992
vt 0.781459 0.001992
vt 0.241081 0.828545
vt 0.249514 0.873658
vt 0.241081 0.918771
vt 0.216920 0.957791
vt 0.180296 0.985448
vt 0.136153 0.998008
vt 0.090455 0.993773
vt 0.049372 0.973317
vt 0.018453 0.939400
vt 0.001874 0.896605
vt 0.001874 0.850711
vt 0.018453 0.807916
vt 0.049372 0.773999
vt 0.090455 0.753542
vt 0.136153 0.749308
vt 0.180296 0.761867
vt 0.216920 0.789525
vt 0.399936 0.766174
vt 0.397531 0.770058
vt 0.393886 0.772810
vt 0.389493 0.774060
vt 0.384945 0.773639
vt 0.380856 0.771603
vt 0.377778 0.768227
vt 0.376128 0.763968
vt 0.376128 0.759400
vt 0.377778 0.755141
vt 0.380856 0.751765
vt 0.384945 0.749729
vt 0.389493 0.749308
vt 0.393886 0.750558
vt 0.397531 0.753311
vt 0.399936 0.757194
vt 0.400775 0.761684
vt 0.368276 0.773623
vt 0.364810 0.779222
vt 0.360799 0.775524
vt 0.363204 0.771640
vt 0.359554 0.783191
vt 0.357154 0.778277
vt 0.369486 0.767150
vt 0.364043 0.767150
vt 0.353221 0.784993
vt 0.352761 0.779527
vt 0.368276 0.760677
vt 0.363204 0.762660
vt 0.346664 0.784385
vt 0.348213 0.779105
vt 0.364810 0.755078
vt 0.360799 0.758777
vt 0.340769 0.781450
vt 0.344124 0.777069
vt 0.359554 0.751110
vt 0.357154 0.756024
vt 0.336332 0.776583
vt 0.341046 0.773693
vt 0.353221 0.749308
vt 0.352761 0.754774
vt 0.333954 0.770443
vt 0.339397 0.769434
vt 0.346664 0.749915
vt 0.348213 0.755195
vt 0.333954 0.763858
vt 0.339397 0.764866
vt 0.340769 0.752851
vt 0.344124 0.757231
vt 0.336332 0.757717
vt 0.341046 0.760607
vt 0.589920 0.483749
vt 0.677176 0.396492
vt 0.851724 0.396492
vt 0.938980 0.483749
vt 0.938980 0.658296
vt 0.851724 0.745553
vt 0.677176 0.745553
vt 0.589920 0.658296
vt 0.235087 0.483749
vt 0.322344 0.396492
vt 0.496891 0.396492
vt 0.584148 0.483749
vt 0.584148 0.658296
vt 0.496891 0.745553
vt 0.322344 0.745553
vt 0.235087 0.658296
vt 0.230960 0.002095
vt 0.275102 0.002026
vt 0.284676 0.392756
vt 0.278343 0.392766
vt 0.320801 0.001954
vt 0.291233 0.392746
vt 0.361884 0.001889
vt 0.297128 0.392737
vt 0.574166 0.001992
vt 0.615249 0.001992
vt 0.645431 0.392737
vt 0.639537 0.392737
vt 0.660947 0.001992
vt 0.651989 0.392737
vt 0.705090 0.001992
vt 0.658322 0.392737
vt 0.460672 0.763122
vt 0.456279 0.763122
vt 0.456279 0.749308
vt 0.460672 0.749308
vt 0.451731 0.763122
vt 0.451731 0.749308
vt 0.447642 0.763122
vt 0.447642 0.749308
vt 0.467812 0.749308
vt 0.471901 0.749308
vt 0.471901 0.763122
vt 0.467812 0.763122
vt 0.476450 0.749308
vt 0.476450 0.763122
vt 0.480843 0.749308
vt 0.480843 0.763122
vt 0.288200 0.923855
vt 0.256939 0.923855
vt 0.256939 0.749308
vt 0.288200 0.749308
vt 0.326707 0.923855
vt 0.295446 0.923855
vt 0.295446 0.749308
vt 0.326707 0.749308
vn 0.899845 0.262079 -0.348702
vn 0.712978 0.262484 -0.650204
vn 0.713209 0.262483 -0.649951
vn 0.899912 0.262078 -0.348531
vn 0.429825 0.263098 -0.863731
vn 0.430232 0.263097 -0.863528
vn 0.088740 0.263838 -0.960477
vn 0.089244 0.263836 -0.960430
vn -0.264151 0.264603 -0.927475
vn -0.263681 0.264602 -0.927609
vn -0.581208 0.265290 -0.769297
vn -0.580885 0.265289 -0.769542
vn -0.819705 0.265807 -0.507376
vn -0.819564 0.265806 -0.507604
vn -0.947546 0.266084 -0.177077
vn -0.947529 0.266084 -0.177168
vn -0.947546 0.266084 0.177077
vn -0.947529 0.266084 0.177168
vn -0.819705 0.265807 0.507376
vn -0.819564 0.265806 0.507604
vn -0.581208 0.265290 0.769297
vn -0.580885 0.265289 0.769542
vn -0.264151 0.264603 0.927475
vn -0.263681 0.264602 0.927609
vn 0.088740 0.263837 0.960477
vn 0.089244 0.263836 0.960430
vn 0.429824 0.263098 0.863731
vn 0.430232 0.263097 0.863528
vn 0.712978 0.262484 0.650204
vn 0.713209 0.262483 0.649951
vn 0.899845 0.262079 0.348702
vn 0.899912 0.262079 0.348531
vn 0.965085 0.261937 0.000000
vn 0.965085 0.261937 -0.000000
vn 0.000000 -1.000000 0.000000
vn 0.000000 -1.000000 0.000000
vn 0.000000 -1.000000 0.000000
vn 0.000000 -1.000000 0.000000
vn 0.000000 -1.000000 0.000000
vn 0.000000 -1.000000 0.000000
vn 0.000000 -1.000000 0.000000
vn 0.000000 -1.000000 0.000000
vn 0.000000 -1.000000 0.000000
vn 0.000000 -1.000000 0.000000
vn 0.000000 -1.000000 0.000000
vn 0.000000 -1.000000 0.000000
vn 0.000000 -1.000000 0.000000
vn 0.000000 -1.000000 0.000000
vn 0.000000 -1.000000 0.000000
vn 0.000000 -1.000000 0.000000
vn 0.000000 -1.000000 0.000000
vn 0.000000 1.000000 0.000000
vn 0.000000 1.000000 0.000000
vn 0.000000 1.000000 0.000000
vn 0.000000 1.000000 0.000000
vn 0.000000 1.000000 0.000000
vn 0.000000 1.000000 0.000000
vn 0.000000 1.000000 0.000000
vn 0.000000 1.000000 0.000000
vn 0.000000 1.000000 0.000000
vn 0.000000 1.000000 0.000000
vn 0.000000 1.000000 0.000000
vn 0.000000 1.000000 0.000000
vn 0.000000 1.000000 0.000000
vn 0.000000 1.000000 0.000000
vn 0.000000 1.000000 0.000000
vn 0.000000 1.000000 0.000000
vn 0.000000 1.000000 0.000000
vn 0.000000 1.000000 0.000000
vn 0.000000 1.000000 0.000000
vn 0.000000 1.000000 0.000000
vn 0.000000 1.000000 0.000000
vn 0.000000 1.000000 0.000000
vn 0.000000 1.000000 0.000000
vn 0.000000 1.000000 0.000000
vn 0.000000 1.000000 0.000000
vn 0.000000 1.000000 0.000000
vn 0.000000 1.000000 0.000000
vn 0.000000 1.000000 0.000000
vn 0.000000 1.000000 0.000000
vn 0.000000 1.000000 -0.000006
vn 0.000000 1.000000 -0.000006
vn 0.000000 1.000000 -0.000006
vn 0.000000 1.000000 -0.000006
vn 0.000000 1.000000 0.000000
vn 0.000000 1.000000 0.000000
vn 0.000000 1.000000 0.000000
vn 0.000000 1.000000 0.000000
vn 0.000000 1.000000 0.000000
vn 0.000000 1.000000 0.000000
vn 0.000000 1.000000 0.000000
vn 0.000000 1.000000 0.000000
vn 0.000000 1.000000 0.000004
vn 0.000000 1.000000 0.000004
vn 0.000000 1.000000 0.000004
vn 0.000000 1.000000 0.000004
vn 0.000000 1.000000 0.000000
vn 0.000000 1.000000 0.000000
vn 0.000000 1.000000 0.000000
vn 0.000000 1.000000 0.000000
vn 0.000000 1.000000 0.000000
vn 0.000000 1.000000 0.000000
vn 0.000000 1.000000 0.000000
vn 0.000000 1.000000 0.000000
vn 0.000000 1.000000 0.000004
vn 0.000000 1.000000 0.000004
vn 0.000000 1.000000 0.000004
vn 0.000000 1.000000 0.000004
vn 0.000000 1.000000 0.000004
vn 0.000000 1.000000 0.000004
vn 0.000000 1.000000 0.000004
vn 0.000000 1.000000 0.000004
vn 0.000000 1.000000 0.000004
vn 0.000000 1.000000 0.000004
vn 0.000000 1.000000 0.000004
vn 0.000000 1.000000 0.000004
vn 0.000000 1.000000 0.000003
vn 0.000000 1.000000 0.000003
vn 0.000000 1.000000 0.000003
vn 0.000000 1.000000 0.000003
vn 0.000000 1.000000 0.000000
vn 0.000000 1.000000 0.000000
vn 0.000000 1.000000 0.000000
vn 0.000000 1.000000 0.000000
vn 0.000000 1.000000 -0.000004
vn 0.000000 1.000000 -0.000004
vn 0.000000 1.000000 -0.000004
vn 0.000000 1.000000 -0.000004
vn 0.000000 1.000000 -0.000004
vn 0.000000 1.000000 -0.000004
vn 0.000000 1.000000 -0.000004
vn 0.000000 1.000000 -0.000004
vn 0.000000 1.000000 0.000009
vn 0.000000 1.000000 0.000009
vn 0.000000 1.000000 0.000009
vn 0.000000 1.000000 0.000009
vn -0.850218 0.000000 0.526431
vn -0.850218 0.000000 0.526431
vn -0.850218 0.000000 0.526431
vn -0.850218 0.000000 0.526431
vn -0.602637 0.000000 0.798016
vn -0.602637 0.000000 0.798016
vn -0.602637 0.000000 0.798016
vn -0.602637 0.000000 0.798016
vn -0.273659 0.000000 0.961827
vn -0.273659 0.000000 0.961827
vn -0.273659 0.000000 0.961827
vn -0.273659 0.000000 0.961827
vn 0.092260 0.000000 0.995735
vn 0.092260 0.000000 0.995735
vn 0.092260 0.000000 0.995735
vn 0.092260 0.000000 0.995735
vn 0.445743 0.000000 0.895161
vn 0.445743 0.000000 0.895161
vn 0.445743 0.000000 0.895161
vn 0.445743 0.000000 0.895161
vn 0.739007 0.000000 0.673698
vn 0.739007 0.000000 0.673698
vn 0.739007 0.000000 0.673698
vn 0.739007 0.000000 0.673698
vn 0.932478 0.000000 0.361226
vn 0.932478 0.000000 0.361226
vn 0.932478 0.000000 0.361226
vn 0.932478 0.000000 0.361226
vn 1.000000 0.000000 0.000000
vn 1.000000 0.000000 0.000000
vn 1.000000 0.000000 0.000000
vn 1.000000 0.000000 0.000000
vn 0.932478 0.000000 -0.361226
vn 0.932478 0.000000 -0.361226
vn 0.932478 0.000000 -0.361226
vn 0.932478 0.000000 -0.361226
vn 0.739009 0.000000 -0.673696
vn 0.739009 0.000000 -0.673696
vn 0.739009 0.000000 -0.673696
vn 0.739009 0.000000 -0.673696
vn 0.445742 0.000000 -0.895162
vn 0.445742 0.000000 -0.895162
vn 0.445742 0.000000 -0.895162
vn 0.445742 0.000000 -0.895162
vn 0.092260 0.000000 -0.995735
vn 0.092260 0.000000 -0.995735
vn 0.092260 0.000000 -0.995735
vn 0.092260 0.000000 -0.995735
vn -0.273659 0.000000 -0.961827
vn -0.273659 0.000000 -0.961827
vn -0.273659 0.000000 -0.961827
vn -0.273659 0.000000 -0.961827
vn -0.602636 0.000000 -0.798016
vn -0.602636 0.000000 -0.798016
vn -0.602636 0.000000 -0.798016
vn -0.602636 0.000000 -0.798016
vn -0.850218 0.000000 -0.526431
vn -0.850218 0.000000 -0.526431
vn -0.850218 0.000000 -0.526431
vn -0.850218 0.000000 -0.526431
vn -0.982976 0.000000 -0.183735
vn -0.982976 0.000000 -0.183735
vn -0.982976 0.000000 -0.183735
vn -0.982976 0.000000 -0.183735
vn -0.982976 0.000000 0.183736
vn -0.982976 0.000000 0.183736
vn -0.982976 0.000000 0.183736
vn -0.982976 0.000000 0.183736
vn 0.000000 0.000000 1.000000
vn 0.000000 0.000000 1.000000
vn 0.000000 0.000000 1.000000
vn 0.000000 0.000000 1.000000
vn 0.000000 0.000000 -1.000000
vn 0.000000 0.000000 -1.000000
vn 0.000000 0.000000 -1.000000
vn 0.000000 0.000000 -1.000000
vn 1.000000 0.000000 0.000000
vn 1.000000 0.000000 0.000000
vn 1.000000 0.000000 0.000000
vn 1.000000 0.000000 0.000000
vn -1.000000 0.000000 0.000000
vn -1.000000 0.000000 0.000000
vn -1.000000 0.000000 0.000000
vn -1.000000 0.000000 0.000000
vn 0.000000 1.000000 0.000000
vn 0.000000 1.000000 0.000000
vn 0.000000 1.000000 0.000000
vn 0.000000 1.000000 0.000000
vn 0.000000 1.000000 0.000000
vn 0.000000 1.000000 0.000000
vn 0.000000 1.000000 0.000000
vn 0.000000 1.000000 0.000000
vn 0.000000 -1.000000 -0.000000
vn 0.000000 -1.000000 -0.000000
vn 0.000000 -1.000000 -0.000000
vn 0.000000 -1.000000 -0.000000
vn 0.000000 -1.000000 -0.000000
vn 0.000000 -1.000000 -0.000000
vn 0.000000 -1.000000 -0.000000
vn 0.000000 -1.000000 -0.000000
vn -0.707107 0.000000 0.707107
vn -0.707107 0.000000 0.707107
vn -0.707107 0.000000 0.707107
vn -0.707107 0.000000 0.707107
vn 0.707107 0.000000 0.707107
vn 0.707107 0.000000 0.707107
vn 0.707107 0.000000 0.707107
vn 0.707107 0.000000 0.707107
vn -0.707107 0.000000 -0.707107
vn -0.707107 0.000000 -0.707107
vn -0.707107 0.000000 -0.707107
vn -0.707107 0.000000 -0.707107
vn 0.707107 0.000000 -0.707107
vn 0.707107 0.000000 -0.707107
vn 0.707107 0.000000 -0.707107
vn 0.707107 0.000000 -0.707107
s 1
g pCylinder2
usemtl initialShadingGroup
f 1/17/1 2/21/2 19/22/3 18/18/4
f 2/21/2 3/25/5 20/26/6 19/22/3
f 3/153/5 4/154/7 21/155/8 20/156/6
f 4/154/7 5/157/9 22/158/10 21/155/8
f 5/157/9 6/159/11 23/160/12 22/158/10
f 6/7/11 7/1/13 24/4/14 23/8/12
f 7/1/13 8/2/15 25/3/16 24/4/14
f 8/2/15 9/5/17 26/6/18 25/3/16
f 9/5/17 10/9/19 27/10/20 26/6/18
f 10/9/19 11/11/21 28/12/22 27/10/20
f 11/161/21 12/162/23 29/163/24 28/164/22
f 12/162/23 13/165/25 30/166/26 29/163/24
f 13/165/25 14/167/27 31/168/28 30/166/26
f 14/23/27 15/19/29 32/20/30 31/24/28
f 15/19/29 16/13/31 33/16/32 32/20/30
f 16/13/31 17/14/33 34/15/34 33/16/32
f 17/14/33 1/17/1 18/18/4 34/15/34
s off
f 1/69/35 17/70/36 16/71/37 15/72/38 14/73/39 13/74/40 12/75/41 11/76/42 10/77/43 9/78/44 8/79/45 7/80/46 6/81/47 5/82/48 4/83/49 3/84/50 2/85/51
f 52/86/52 53/87/53 54/88/54 55/89/55 56/90/56 57/91/57 58/92/58 59/93/59 60/94/60 61/95/61 62/96/62 63/97/63 64/98/64 65/99/65 66/100/66 67/101/67 68/102/68
f 18/103/69 19/104/70 36/105/71 35/106/72
f 19/104/73 20/107/74 37/108/75 36/105/76
f 20/107/77 21/111/78 38/112/79 37/108/80
f 21/111/81 22/115/82 39/116/83 38/112/84
f 22/115/85 23/119/86 40/120/87 39/116/88
f 23/119/89 24/123/90 41/124/91 40/120/92
f 24/123/93 25/127/94 42/128/95 41/124/96
f 25/127/97 26/131/98 43/132/99 42/128/100
f 26/131/101 27/135/102 44/136/103 43/132/104
f 27/135/105 28/133/106 45/134/107 44/136/108
f 28/133/109 29/129/110 46/130/111 45/134/112
f 29/129/113 30/125/114 47/126/115 46/130/116
f 30/125/117 31/121/118 48/122/119 47/126/120
f 31/121/121 32/117/122 49/118/123 48/122/124
f 32/117/125 33/113/126 50/114/127 49/118/128
f 33/113/129 34/109/130 51/110/131 50/114/132
f 34/109/133 18/103/134 35/106/135 51/110/136
f 35/43/137 36/47/138 53/48/139 52/44/140
f 36/47/141 37/51/142 54/52/143 53/48/144
f 37/169/145 38/170/146 55/171/147 54/172/148
f 38/170/149 39/173/150 56/174/151 55/171/152
f 39/173/153 40/175/154 57/176/155 56/174/156
f 40/33/157 41/27/158 58/30/159 57/34/160
f 41/27/161 42/28/162 59/29/163 58/30/164
f 42/28/165 43/31/166 60/32/167 59/29/168
f 43/31/169 44/35/170 61/36/171 60/32/172
f 44/35/173 45/37/174 62/38/175 61/36/176
f 45/177/177 46/178/178 63/179/179 62/180/180
f 46/178/181 47/181/182 64/182/183 63/179/184
f 47/181/185 48/183/186 65/184/187 64/182/188
f 48/49/189 49/45/190 66/46/191 65/50/192
f 49/45/193 50/39/194 67/42/195 66/46/196
f 50/39/197 51/40/198 68/41/199 67/42/200
f 51/40/201 35/43/202 52/44/203 68/41/204
f 72/185/205 70/186/206 74/187/207 76/188/208
f 80/189/209 78/190/210 81/191/211 84/192/212
f 75/53/213 73/54/214 83/55/215 82/56/216
f 77/61/217 79/62/218 69/63/219 71/64/220
f 71/137/221 72/138/222 76/139/223 75/140/224 82/141/225 81/142/226 78/143/227 77/144/228
f 79/145/229 80/146/230 84/147/231 83/148/232 73/149/233 74/150/234 70/151/235 69/152/236
f 69/63/237 70/67/238 72/68/239 71/64/240
f 74/57/241 73/54/242 75/53/243 76/58/244
f 77/61/245 78/65/246 80/66/247 79/62/248
f 81/59/249 82/56/250 83/55/251 84/60/252
